# xmcd
#
# Track frame offsets:
#	150
#	16040
#	29777
#	45225
#	62918
#	79968
#	98104
#	115719
#	133960
#	150632
#	173311
#	184017
#
# Disc length: 2573 seconds
#
# Revision: 0
# Processed by: cddbd v1.5.2PL0 Copyright (c) Steve Scherf et al.
# Submitted via: dBpowerAMP V4.0
#
DISCID=900a0b0c
DTITLE=Amy McDonald - This is the Life
DYEAR=1900
DGENRE=Country
TTITLE0=Mr Rock&Roll
TTITLE1=this is the life
TTITLE2=poison prince
TTITLE3=youth of today
TTITLE4=run
TTITLE5=let´s start a band
TTITLE6=barrowland ballroom
TTITLE7=l.a.
TTITLE8=a wish for something more
TTITLE9=footballer´s wife
TTITLE10=the road to home
TTITLE11=unplugged track
EXTD=This is the Life
EXTT0=
EXTT1=
EXTT2=
EXTT3=
EXTT4=
EXTT5=
EXTT6=
EXTT7=
EXTT8=
EXTT9=
EXTT10=
EXTT11=
PLAYORDER=
